<?xml version="1.0" standalone="no"?>
<!DOCTYPE svg PUBLIC "-//W3C//DTD SVG 20010904//EN"
 "http://www.w3.org/TR/2001/REC-SVG-20010904/DTD/svg10.dtd">
<svg version="1.0" xmlns="http://www.w3.org/2000/svg"
 width="700.000000pt" height="700.000000pt" viewBox="0 0 700.000000 700.000000"
 preserveAspectRatio="xMidYMid meet">
<metadata>
Created by potrace 1.14, written by Peter Selinger 2001-2017
</metadata>
<g transform="translate(0.000000,700.000000) scale(0.100000,-0.100000)"
fill="#000000" stroke="none">
<path d="M4370 6017 c-3 -3 -32 -8 -65 -11 -33 -4 -73 -8 -90 -11 -16 -2 -82
-11 -145 -20 -174 -25 -183 -26 -206 -30 -12 -2 -48 -7 -80 -10 -33 -4 -68 -9
-78 -11 -11 -2 -56 -8 -100 -14 -45 -6 -92 -13 -106 -15 -14 -2 -45 -7 -69
-10 -23 -3 -55 -7 -70 -9 -72 -12 -149 -23 -216 -31 -27 -3 -57 -8 -65 -10 -8
-2 -40 -6 -71 -10 -31 -3 -67 -8 -80 -10 -12 -3 -45 -7 -73 -10 -28 -3 -107
-14 -176 -25 -69 -10 -147 -21 -175 -24 -27 -4 -61 -9 -75 -11 -14 -3 -43 -7
-65 -10 -53 -6 -194 -25 -225 -30 -14 -2 -45 -6 -70 -10 -25 -3 -90 -12 -145
-21 -55 -8 -116 -16 -135 -18 -19 -2 -51 -7 -70 -10 -19 -4 -51 -8 -70 -11
-40 -5 -252 -34 -290 -40 -14 -2 -63 -9 -110 -15 -47 -6 -96 -13 -110 -15 -14
-3 -50 -7 -80 -11 -30 -3 -62 -8 -72 -9 -9 -2 -38 -6 -65 -10 -182 -24 -294
-97 -374 -248 -53 -99 -71 -183 -75 -347 -7 -287 49 -505 169 -653 l44 -53
-144 -44 c-148 -44 -173 -59 -173 -106 0 -32 42 -71 112 -104 35 -17 68 -30
74 -30 20 0 100 -83 121 -125 50 -99 71 -223 66 -387 -4 -155 -3 -152 -81
-173 -94 -25 -268 -91 -319 -120 -39 -23 -73 -59 -73 -77 0 -11 56 -32 123
-47 57 -12 69 -23 43 -38 -31 -18 -98 -131 -121 -205 -33 -103 -40 -159 -40
-298 1 -237 43 -416 131 -556 74 -118 127 -154 331 -220 92 -30 321 -104 508
-165 187 -61 441 -144 565 -184 124 -41 297 -97 385 -126 88 -28 212 -68 275
-89 458 -151 494 -161 533 -156 21 3 42 8 46 10 4 3 18 7 32 9 30 6 122 28
489 118 157 39 292 72 300 74 8 2 65 15 125 30 61 15 117 28 125 30 17 4 236
57 555 135 256 62 495 120 515 125 8 2 128 31 265 65 138 33 297 72 354 86 57
14 111 27 120 29 9 2 54 13 101 25 85 22 107 27 146 35 11 3 92 23 179 44 193
49 211 65 133 119 -49 33 -203 96 -323 132 -44 13 -83 26 -87 29 -24 21 -26
273 -3 386 34 161 100 250 220 295 79 29 135 77 135 114 0 46 -21 65 -97 87
-40 12 -73 26 -73 30 0 5 4 9 8 9 29 0 130 125 170 210 64 138 87 272 87 500
0 121 -4 171 -19 225 -21 79 -68 182 -97 216 -11 12 -16 25 -12 29 5 4 79 24
165 45 122 29 157 42 161 56 11 43 -112 110 -320 175 -125 39 -135 44 -140 71
-10 51 -8 258 3 326 26 165 100 284 194 312 94 28 174 96 166 142 -7 37 -22
50 -79 68 -29 8 -72 22 -97 30 -25 8 -157 48 -295 89 -137 41 -333 100 -435
131 -102 31 -198 60 -215 65 -16 4 -151 45 -300 90 -148 45 -313 95 -365 110
-52 16 -165 50 -250 75 -155 48 -211 61 -220 52z m-3413 -776 c32 -11 234 -77
448 -146 449 -146 783 -255 905 -295 96 -32 749 -244 823 -267 63 -20 75 -33
71 -80 -1 -21 -5 -126 -8 -233 -9 -287 -17 -484 -19 -486 -1 0 -94 25 -207 58
-113 32 -245 69 -295 83 -49 13 -139 38 -200 55 -60 17 -118 33 -128 35 -10 2
-32 9 -50 15 -32 11 -275 79 -377 106 -52 14 -401 112 -869 244 -187 53 -208
61 -243 95 -92 88 -139 260 -133 485 4 147 23 219 73 286 46 64 111 78 209 45z
m5243 -171 c-18 -34 -49 -142 -60 -214 -12 -74 -12 -277 -1 -363 7 -52 7 -53
-23 -62 -24 -8 -291 -75 -416 -105 -8 -2 -53 -14 -100 -26 -47 -12 -94 -24
-105 -26 -11 -2 -290 -71 -620 -153 -330 -82 -811 -202 -1070 -266 -258 -64
-478 -119 -488 -121 -17 -6 -18 2 -13 123 3 70 9 205 12 298 3 94 7 208 9 253
1 46 7 88 12 93 4 4 26 11 48 15 22 3 90 16 150 29 94 20 415 86 495 101 14 3
99 21 189 40 90 19 176 36 190 39 14 2 114 23 221 45 107 22 209 43 225 46 17
3 59 11 95 19 36 8 76 17 90 19 14 2 45 9 70 15 25 5 56 12 70 15 30 5 327 66
355 72 11 2 36 7 55 10 19 3 38 8 41 10 4 2 23 6 42 9 20 3 140 28 269 54 277
58 272 58 258 31z m18 -1048 c67 -48 111 -204 106 -377 -6 -203 -51 -353 -129
-428 -41 -40 -30 -36 -375 -132 -113 -31 -317 -88 -455 -127 -137 -38 -329
-92 -425 -118 -96 -27 -296 -83 -445 -125 -148 -42 -279 -78 -291 -81 -11 -2
-65 -17 -120 -32 -228 -66 -256 -74 -259 -70 -5 4 -10 139 -20 473 -3 99 -7
204 -8 233 -2 29 2 57 8 61 8 7 383 131 750 250 62 20 719 234 1145 373 135
44 274 91 310 104 83 29 162 28 208 -4z m-5360 -148 c15 -3 104 -21 197 -40
94 -19 179 -36 190 -38 11 -2 76 -16 145 -30 69 -15 134 -28 145 -30 11 -2
124 -25 250 -51 127 -26 235 -48 240 -49 6 -1 24 -5 40 -9 17 -4 41 -8 55 -11
26 -4 309 -63 465 -96 50 -11 106 -22 125 -25 19 -3 51 -10 70 -15 19 -5 51
-12 70 -15 29 -5 155 -31 385 -80 17 -4 50 -11 75 -15 25 -5 56 -11 70 -14 14
-3 84 -18 155 -32 72 -15 132 -29 134 -30 2 -2 5 -45 6 -96 13 -415 17 -532
19 -595 3 -55 0 -73 -10 -73 -7 0 -473 115 -1036 255 -563 141 -1059 264
-1103 275 -44 10 -218 53 -387 95 l-307 77 7 46 c4 26 7 124 6 217 0 178 -14
266 -55 347 -14 27 -15 38 -6 41 6 2 15 2 20 0 4 -2 20 -7 35 -9z m287 -1176
c494 -160 733 -238 1070 -348 132 -43 353 -115 490 -160 334 -109 302 -94 299
-138 -1 -20 -5 -140 -9 -267 -8 -288 -14 -458 -18 -461 -3 -3 -171 42 -287 76
-42 12 -316 89 -570 159 -102 28 -207 58 -235 66 -27 8 -205 58 -395 110 -190
53 -432 121 -538 151 -106 30 -215 59 -242 65 -122 26 -207 173 -227 391 -25
277 28 457 145 491 25 8 56 12 67 9 11 -2 214 -67 450 -144z m4865 -21 c0 -2
-11 -30 -24 -63 -12 -33 -29 -91 -37 -130 -14 -75 -17 -313 -4 -405 l7 -56
-213 -52 c-118 -29 -227 -56 -244 -62 -28 -8 -1110 -277 -1148 -284 -10 -2
-27 -7 -37 -10 -10 -3 -27 -8 -37 -10 -10 -2 -200 -49 -423 -105 -223 -56
-413 -103 -423 -105 -9 -2 -45 -11 -80 -20 -34 -9 -69 -18 -77 -20 -8 -2 -46
-10 -83 -19 -64 -15 -93 -14 -83 2 2 4 7 115 11 247 4 132 9 272 10 310 2 39
3 98 4 131 1 61 1 61 34 67 17 3 118 24 222 46 105 22 203 42 219 45 16 3 52
10 81 17 41 9 64 9 99 0 43 -11 54 -8 215 44 94 31 178 57 188 59 22 4 94 18
108 22 6 1 66 13 135 27 69 14 224 47 344 72 121 25 234 48 250 51 17 3 36 7
41 8 20 5 121 26 145 30 40 8 173 35 200 41 24 6 54 12 95 20 11 2 43 8 70 14
28 6 61 13 75 15 14 3 70 14 125 26 55 11 114 23 130 26 17 2 44 9 60 13 34
11 45 12 45 8z"/>
</g>
</svg>
